<svg xmlns="http://www.w3.org/2000/svg" version="1.1" xmlns:xlink="http://www.w3.org/1999/xlink" width="1000" height="1000"><g clip-path="url(#SvgjsClipPath1103)"><rect width="1000" height="1000" fill="#ffffff"></rect><g transform="matrix(0.5744558626412204,0,0,0.5744558626412204,50,52.154209484904584)"><svg xmlns="http://www.w3.org/2000/svg" version="1.1" xmlns:xlink="http://www.w3.org/1999/xlink" width="1566.7" height="1559.2"><svg id="Layer_2" data-name="Layer 2" xmlns="http://www.w3.org/2000/svg" viewBox="0 0 1566.7 1559.2">
  <path d="M1.83,785.59c0-10.66.11-21.31-.02-31.97-.35-27.7,3.47-55.01,7.14-82.36,3.54-26.41,9.32-52.33,15.36-78.25,6.73-28.89,15.37-57.13,25.54-84.96,15.12-41.39,33.68-81.26,56.98-118.57,17.26-27.63,37.12-53.65,55.76-80.42,20.68-29.7,46.28-55.11,71.64-80.55,28.69-28.78,59.48-55.36,93.6-77.69,28.68-18.78,56.93-38.4,86.77-55.17,35.95-20.2,73.41-37.74,112.44-51.42,14.97-5.25,30.36-9.45,45.75-13.37,25.28-6.43,50.6-12.74,76.12-18.12,14.87-3.13,30.14-4.34,45.23-6.45,3.29-.46,6.54-1.33,9.84-1.53,14.23-.89,28.48-1.66,42.72-2.36,15.63-.76,31.27-1.39,46.9-2.08,1.66-.07,3.34-.39,4.99-.27,27.45,1.99,54.88,4.16,82.34,6.01,27.31,1.84,54.05,7.52,80.5,13.73,28.42,6.67,56.46,15.38,84.08,24.93,46.67,16.13,91.74,36.3,133.78,62.24,30.56,18.86,59.9,39.76,89.26,60.49,27.3,19.28,51.44,42.41,74.6,66.33,17.57,18.16,33.89,37.62,49.75,57.32,15.02,18.66,29.55,37.83,42.83,57.74,25.15,37.7,47.88,76.77,65.63,118.69,14.95,35.32,28.19,71.19,38.39,108.12,9.75,35.31,17.52,71.1,21.88,107.51,5.69,47.43,5.9,95.09,3.98,142.71-.76,18.88-4.13,37.69-6.84,56.46-2.38,16.45-4.81,32.95-8.45,49.15-5.53,24.65-11.37,49.28-18.42,73.52-12.21,41.99-29.66,81.95-49.47,120.91-26.07,51.26-57.19,99.23-93.73,143.63-30.56,37.14-64.03,71.45-101.06,102.18-14.34,11.9-28.58,24-43.65,34.94-29.66,21.53-60.48,41.38-92.58,59.1-39.74,21.92-81.52,39.09-124.58,53.39-33.2,11.03-66.88,20.29-101.18,26.77-52.15,9.84-104.88,14.19-158.04,13.14-33.36-.66-66.48-3.82-99.44-8.61-13.13-1.91-26.13-5.17-38.97-8.61-33.06-8.86-66.45-16.85-98.87-27.68-27.05-9.04-53.3-20.81-79.22-32.83-35.05-16.26-68.82-35.15-100.7-57.02-21.39-14.67-42.16-30.41-62.12-46.98-20.75-17.21-40.72-35.45-60.08-54.23-27.3-26.48-51.22-55.98-74.73-85.87-24.84-31.57-45.55-65.64-64.5-100.86-32.04-59.55-55.08-122.56-70.15-188.4-9.67-42.23-16.14-84.99-17.17-128.43-.27-11.31-1.1-22.61-1.67-33.91.61-.01,1.22-.02,1.83-.03ZM1150.05,895.08c1.94,2.67,3.6,5.62,5.91,7.93,2.46,2.45,5.09,2.19,7.75-.59,9.85-10.26,14.62-24.3,25.38-33.86.68-.61.91-1.76,1.28-2.68,7.14-17.46,15.47-34.33,20.69-52.69,5.51-19.37,6.27-38.62,4.86-58.28-.11-1.46-1.3-2.85-2.55-5.44-1.18,12.45-2.15,23.33-3.29,34.19-.24,2.28-1.05,4.52-1.72,6.74-2.4,7.94-4.25,16.11-7.42,23.73-5.48,13.17-10.75,26.62-18.07,38.77-6.63,11-15.91,20.4-23.96,30.56-3.1,3.91-6.03,7.96-9.03,11.94-.65-8.02,2.61-14.88,6.38-21.6,3.9-6.95,8.08-13.77,11.5-20.96,8.88-18.65,14.99-38.07,18.86-58.53,3.11-16.42,1.71-32.48,1.29-48.72-.09-3.4-1.44-6.78-2.21-10.16-3.64,5.76-2.84,11.69-2.88,17.42-.14,19.15-2.36,37.93-10.54,55.44-6.62,14.16-13.98,27.98-21.11,41.9-1.05,2.05-2.45,4.04-4.1,5.62-1.16,1.12-3.03,1.49-6.02,2.86,6.19-17.78,12.33-33.8,17.3-50.18,5.12-16.87,9.13-34.07,7.05-52.01-1.94-16.7-3.76-33.42-5.63-50.13-1.95,10.73-2.86,21.34-3.29,31.96-.87,21.46-5.86,42.11-11.65,62.64-1.02,3.62-2.71,6.03-7.75,4.09.54-12.86.22-25.85,1.79-38.61,3.74-30.28.44-59.78-7.82-88.91-.84-2.98-1.81-5.92-3.28-10.71-.98,3.03-1.46,3.89-1.51,4.77-1.36,22.27-2.75,44.54-3.99,66.82-.96,17.3-4.04,34.09-11.29,50.08-.51-3.16-.06-6.2.26-9.26.78-7.6,2.14-15.21,2.11-22.81-.07-14.99-.89-29.97-1.45-44.96-.79-20.99-6.81-40.62-15.76-59.42-1.28-2.69-3.72-4.83-6.46-8.28-.64,2.91-1.05,3.83-1,4.73.89,15.62,2.02,31.22,2.75,46.84,1.44,31.01.64,61.83-5.02,92.56-8.15,44.29-24.35,84.93-50.96,121.38-13.81,18.91-28.67,37.21-47.01,51.56-21.12,16.53-42.98,32.32-68.64,42.05-27.32,10.36-54.11,21.5-83.57,25.33-37.06,4.83-73.92,4.43-110.44-2.23-31.86-5.81-62.37-16.69-90.71-32.67-25.04-14.13-48.55-30.75-68.35-51.6-51.18-53.9-77.49-118.53-80.69-192.76-1.46-33.88,4-67.04,9.32-100.25.47-2.9.55-5.87.81-8.81-8.45,15.05-13.93,30.61-15.88,47.36-.9-.09-1.79-.18-2.69-.27-1.26-12.55-2.52-25.1-3.89-38.71-2.53,1.58-3.94,2-4.62,2.95-5.7,7.95-9.65,16.76-10.91,26.47-1.67,12.87-2.73,25.82-4.21,38.72-.27,2.37-1.32,4.66-2.02,6.98-.75-.05-1.49-.1-2.24-.15-2-17.87-4-35.75-6.01-53.62-3.78,5.31-6.01,10.99-8.34,16.62-3.2,7.76-5.1,15.69-5.19,24.22-.23,21.99-.83,43.96,2.83,65.8.95,5.64.76,11.48,1.1,17.22-.92.14-1.84.28-2.76.42-6.55-15.99-11.83-32.39-14.44-49.64-2.57-17.03-5.13-34.06-7.69-51.09-2.75,9.84-3.84,19.54-4.85,29.25-.62,5.94-1.42,11.88-1.6,17.83-.52,16.77,2.83,33.04,6.5,49.3,4.25,18.88,9.9,37.24,18.01,54.84,2.52,5.48,4.63,11.15,6.93,16.73-.72.44-1.43.89-2.15,1.33-3.16-3.26-7.1-6.06-9.34-9.87-7.4-12.59-14.91-25.2-21.05-38.41-11.89-25.56-17.01-53.05-21.19-80.73-.4-2.62.88-6.23-3.78-7.64-.25,2.49-.67,4.67-.66,6.86.05,19.33,1.7,38.44,5.42,57.51,5.21,26.75,13.37,52.11,28.76,74.89,4.07,6.03,7.49,12.59,10.52,19.22,1.41,3.08,1.19,6.91,1.77,10.77-2.05-.21-3.08-.12-3.97-.45-.9-.33-1.83-.91-2.45-1.64-12.99-15.19-25.33-30.67-34.2-48.91-13.99-28.76-20.86-59.5-27.74-90.34-.41-1.86-1.49-3.57-2.26-5.35.07,61.54,17.34,115.67,66.43,156.23,1.52-.42,3.6-.99,5.84-1.6,2.56,5.7,4.82,10.75,7.42,16.52,5.26-2.19,10.01-4.17,16.27-6.78,1.29,9.15,2.45,17.39,3.78,26.86,3.71-1.82,6.52-3.2,9.51-4.67,2.08,1.16,4.24,3.12,6.68,3.59,5.1.98,6.31,4.07,6.26,8.59-.04,3.49.27,6.99.45,11.22,6.77-1.75,9.84-8.8,18.01-7.44-6.93,11.76,1.15,18.15,8.06,24.97,1.42,1.4,3.05,2.61,4.37,4.09,3.09,3.44,6.39,3.32,9.64.54,4.78-4.1,9.46-8.34,14.03-12.67,2.08-1.97,3.4-5.07,8.54-3.57-.54,3.65-1.15,7.35-1.62,11.06-.7,5.57-1.87,11.17-1.8,16.74.1,7.5,6,10.47,12.37,6.35,3.3-2.13,5.79-5.45,8.85-8,3.66-3.05,6.63-7.6,12.53-6.94,3.06,4.75,1.2,9.29.46,13.77-.54,3.25-1.42,6.46-1.82,9.73-.63,5.26,1.73,9.11,6.44,11.28,4.2,1.94,7.97.33,11.88-4.66,2.87-3.67,5.53-7.52,8.58-11.04,1.63-1.88,3.89-3.23,7.67-6.27.56,6.79,1.08,11.6,1.31,16.41.24,4.99-.5,10.14.57,14.92.59,2.63,3.61,5.46,6.24,6.69,3.26,1.53,6.43-.23,8.29-3.63,1.28-2.33,2.98-4.47,3.99-6.9,2.14-5.15,5.56-5.95,10.71-3.81.4,5.41.46,10.72,1.24,15.92,1.54,10.32,2.34,10.92,13.91,13.58,5.61-5.97,7.2-15.49,15.81-19.98,6.55,10.07,4.11,23.53,14.11,32.08,2.25-1.67,4.61-2.93,6.31-4.79,2.69-2.93,4.94-6.25,7.38-9.41,5.05-6.54,10.05-5.93,13.15,1.75.99,2.45,1.66,5.12,1.92,7.74.56,5.68,3.55,9.84,7.59,13.72,11.35-2.65,12.65-18.31,25.68-19.66,1.06,2.54,2.07,4.91,3.03,7.29,1.37,3.38,2.34,6.98,4.15,10.1,4.54,7.83,10.18,8.15,15.38.84,2.88-4.05,5.01-8.62,7.59-12.89,1.79-2.98,3.76-5.86,6.44-10.01,4.3,7.3,7.75,13.32,11.37,19.25,2.83,4.64,6.08,9.31,12.25,8.88,6.47-.45,11.02-4.56,13.9-10.11,1.82-3.51,2.7-7.49,4.09-11.23.87-2.34,1.93-4.61,3.68-8.77,7.57,10.29,14.1,19.16,20.56,27.95,14.99-4.81,11.36-18.43,14.18-29.35,3.23,1.17,5.81,1.36,7.25,2.75,4.74,4.56,8.97,9.65,13.6,14.33,1.73,1.75,4.44,4.45,5.99,4.04,2.38-.63,5.09-3.24,5.95-5.62,1.31-3.64,1.4-7.79,1.58-11.74.24-5.22.06-10.46.06-15.6,7.87-1.37,10.57,3.36,13.29,8,3.81,6.52,7.56,13.07,11.63,20.1,2.29-1.88,3.6-3.69,5.32-4.25,7.04-2.29,7.23-7.85,6.93-13.66-.15-2.99-.84-5.96-.91-8.94-.07-3.1.33-6.21.56-9.87,12.92,3.65,16.09,15.79,24.79,23.81,11.15-12.36,4.75-27.26,8.07-42.05,9.25,8.48,17.43,15.98,25.48,23.36,7.2-2.8,9.32-5.51,8.43-11.46-.44-2.92-1.86-5.68-2.63-8.56-1.64-6.14-2.92-12.32.43-18.61,13.71,2.46,17.62,16.26,27.01,23.64,8.64-5.18,13.12-12.09,11.57-21.75-.99-6.18-2.98-12.19-4.44-18.3-.39-1.62-.48-3.31-.71-4.97.57-.4,1.15-.79,1.72-1.19,4.98,4.23,9.99,8.42,14.91,12.72,2.5,2.18,4.73,4.69,7.27,6.82,2.85,2.39,5.98,2.33,9.32.68,3.45-1.7,5.09-4.54,4.66-8.06-.43-3.56-1.76-7.02-2.68-10.53-1.03-3.96-2.04-7.92-3.03-11.79,6.11-2.17,8.63,1.33,11.64,3.84,3.31,2.76,6.61,5.56,10.2,7.92,3.06,2,6.31,1.67,9.21-.84,2.73-2.37,4.44-5.1,2.92-8.76-2.03-4.9-4.27-9.71-6.37-14.58-.84-1.94-1.52-3.95-2.28-5.93,5.23.79,9.29,2.23,12.33,6.12,1.99,2.55,4.83,4.5,7.49,6.45,3.31,2.42,6.65,1.62,8.64-1.6,3.43-5.54,6.29-11.43,9.6-17.55.45-.08,1.4-.31,2.36-.39,11.88-1.01,12.42-2.02,7.98-13.24-1.03-2.6-3.54-5.55.41-9.71,2.19,5.96,3.98,10.81,5.82,15.81,7.67-.9,9.43-8.31,14.74-11.15-1.47-7.65-5.13-11.84-13.16-10.33-.2-2.79-.34-4.65-.5-6.99,4.45,0,8.25,0,12.08-.04ZM473.39,295.62c-.81.61-1.61,1.23-2.42,1.84-2.84-3.07-5.81-6.03-8.51-9.22-3.87-4.57-7.38-9.44-11.32-13.95-25.61-29.36-51.27-58.69-76.97-87.97-5.71-6.51-11.55-12.91-17.53-19.18-2.55-2.67-5.54-5.02-9.67-2.6-4.47,2.63-4.15,6.63-2.59,10.5,1.84,4.6,3.97,9.15,6.55,13.37,3.12,5.1,6.96,9.76,10.31,14.74,11.7,17.41,23.25,34.91,34.98,52.3,14.52,21.52,29.18,42.94,43.67,64.47.86,1.28.82,3.17,1.2,4.78-4.62-1.94-7.71-4.79-10.66-7.79-4.43-4.51-8.73-9.16-13.14-13.69-12.53-12.89-25.17-25.68-37.62-38.65-15.92-16.58-31.5-33.5-47.64-49.87-6.03-6.12-12.86-11.65-20.01-16.42-7.99-5.33-16.14-.28-15.48,9.5.32,4.81,2.07,9.74,4.09,14.2,10.44,23.07,28.25,41.05,43.03,61.1,14.62,19.81,30.38,38.78,45.56,58.18,1.24,1.59,1.82,3.71,3.73,7.73-3.75-2.4-5.51-3.26-6.95-4.5-9.59-8.26-19.31-16.39-28.62-24.97-24.26-22.36-48.3-44.94-72.48-67.38-4.14-3.84-8.4-7.58-12.9-10.98-3.93-2.96-8.41-3.72-13.01-1.33-2.46,4.95-.83,9.01,1.72,13.22,9.41,15.57,22.79,27.76,34.66,41.25,22.01,25,43.9,50.12,65.75,75.26,1.77,2.04,2.91,4.64,4.34,6.97-3,.17-4.79-.56-6.28-1.69-16.67-12.69-33.48-25.21-49.89-38.23-18.27-14.5-36.15-29.48-56.67-40.82-8.77-4.85-17.58-9.36-28.08-9.33-5.25.02-8.79,2.35-9.55,6.94-2.03,12.26-3.23,24.64,6.14,35,2.91,3.21,5.77,6.48,8.88,9.48,9.34,9.03,19.01,17.74,28.14,26.97,5.91,5.98,13.01,11.12,16.93,20.47-2.35-.53-3.73-.49-4.67-1.11-13.07-8.57-26.1-17.19-39.09-25.87-12.45-8.31-24.82-16.74-37.27-25.05-3.94-2.63-7.88-3.46-12.34,1.93,2.41,3.58,4.34,7.93,7.53,10.94,12.09,11.42,24.42,22.58,36.96,33.51,14.04,12.24,28.45,24.06,42.58,36.19,2.58,2.21,5.32,4.72,4.89,11.19-16.91-14.4-35.67-22.01-53.93-30.44-18.43-8.51-36.41-18.22-56.07-23.99,10.52,14.14,24.98,24.09,35.94,37.66-3.4-.01-6.28-.63-8.86-1.89-7.17-3.5-14.13-7.45-21.33-10.88-6.94-3.3-14.16-5.8-22.08-3.8-4.46,1.13-8.24,3.25-9.03,8.19-.77,4.82,2.89,7.01,6.34,9.18,13.53,8.5,27.15,16.86,40.51,25.6,20.34,13.3,40.55,26.79,60.65,40.45,2.61,1.77,7.18,2.9,5.7,9.16-6.02-1.77-12.06-2.99-17.66-5.29-21.82-8.99-43.46-18.38-65.22-27.5-12.24-5.13-24.33-10.81-37.71-12.39-3.38-.4-6.84-.06-10.01-.06-.37,1.84-.6,2.49-.63,3.14-.6,13.83-2.32,15.87-15.45,18.33-5.41,1.01-6.95,3.4-5.74,9.33,1.84,8.98,7.25,15.85,14.27,21.09,9.32,6.96,19,13.5,28.98,19.48,13.42,8.04,27.31,15.28,40.88,23.07,2.25,1.29,3.92,3.61,5.86,5.45-.43.76-.86,1.53-1.28,2.29-7.93-1.9-16.03-3.28-23.75-5.81-22.18-7.28-44.59-13.29-67.93-15.47-14.07-1.31-18.79,1.32-23.41,14.21-3.72,10.38-2.66,13.79,6.3,20.35,9.86,7.21,21.42,10.74,32.83,14.15,17.18,5.14,34.65,9.33,52.04,13.77,3.33.85,6.6,1.18,5.47,6.51-9.11,0-18.05-.11-26.99.02-23.97.36-47.97.29-71.9,1.43-14.82.71-18.48,2.64-20.1,21.18-.23,2.6-.03,5.23-.03,8.25,35.11,16.39,72.94,17.95,109.9,23.25.44,6.55-3.87,6.48-7.24,6.8-11.26,1.08-22.56,1.88-33.84,2.77-18.25,1.45-36.53,2.71-54.75,4.46-4.88.47-9.9,1.84-14.37,3.87-10.15,4.63-16.15,16.82-12.8,26.3,3.84,10.86,12.79,16.43,23.61,17.11,13.58.85,27.47,1.36,40.86-.54,26.35-3.76,52.11-10.23,76.6-21.37,21.36-9.72,40.19-21.6,51.24-43.54,2.83-5.62,8.67-9.93,13.67-14.22,7.06-6.06,7.61-7.73,2.38-15.37-2.27-3.31-4.25-6.61-2.81-11.57,5.12-.37,10.1-.37,14.95-1.2,4.82-.82,9.82-1.81,14.18-3.89,7.06-3.37,8.54-10.29,3.79-16.58-2.36-3.13-5.77-5.46-8.66-8.21-2.45-2.33-6.09-3.95-5.59-8.97,2.01.23,3.59.51,5.17.58,10.6.49,21.22,1.6,31.79,1.2,8.93-.34,12.37-7.27,7.38-14.65-4.23-6.26-10-11.48-15.11-17.14-1.39-1.53-2.85-3-5.56-5.85,3.93.44,5.91.42,7.74.92,7.71,2.1,15.49,4.01,23.02,6.64,9,3.15,16.85,1.55,24.75-4.16-1.28-12.55-14.38-17.9-17.93-29.09,7.95-1.76,14.01,2.06,20.44,4.7,4.88,2.01,9.96,4.53,15.04,4.74,3.69.15,8.5-2.3,10.9-5.18,1.3-1.56-.66-6.88-2.41-9.74-3.11-5.08-7.22-9.54-10.82-14.34-1.79-2.39-3.77-4.91-.26-8.19,1.33.33,3.03.45,4.43,1.16,6.22,3.15,12.28,6.64,18.56,9.65,4.12,1.98,8.42,4.18,12.85,4.77,5.34.71,8.11-3.06,6.48-8.28-1.06-3.38-3.14-6.57-5.28-9.46-2.57-3.46-6.04-6.27-8.48-9.81-2.08-3.02-3.26-6.67-5.12-10.65,8.52-2.16,13.57,1.93,18.78,5.21,5.35,3.37,10.45,7.12,15.85,10.4,4.88,2.96,9.91,3.62,15.24-1.19-5.14-13.66-16.34-24.27-20.45-38.76,4.56,1.91,8.09,4.69,11.69,7.37,6.13,4.56,12.04,9.48,18.54,13.43,4.35,2.64,9.42,5.18,15.08,1.84.99-14.3-14.16-23.32-12.52-39.7,4.33,2.98,7.74,4.79,10.49,7.32,5.64,5.17,10.82,10.84,16.4,16.08,2.96,2.78,5.41,7.35,10.85,4.55,3.82-1.97,4.78-5.41,3.12-12.31-.46-1.92-1.28-3.78-2.09-5.6-2.44-5.47-5.05-10.86-7.4-16.36-.97-2.27-1.45-4.74-2.49-8.28,2.62.72,4.06.72,4.93,1.42,5.9,4.78,11.61,9.82,17.53,14.57,5.4,4.34,10.59,9.17,16.62,12.41,5.6,3.01,9.3.37,9.17-5.74-.09-4.25-1.08-8.56-2.23-12.68-2.06-7.36-4.68-14.56-6.79-21.9-.65-2.25-.38-4.76-.53-7.15,4.01,1.48,6.28,3.7,8.42,6.03,7.86,8.58,15.32,17.56,23.62,25.69,5.26,5.15,13.51,2.61,14.99-4.02.56-2.49.42-5.39-.25-7.86-2.34-8.65-5.1-17.18-7.6-25.79-.73-2.53-1.13-5.16-1.68-7.74.72-.32,1.44-.64,2.16-.96,2.47,2.52,5.12,4.89,7.36,7.6,6.37,7.7,12.33,15.74,18.91,23.25,5.86,6.68,8.63,6.77,17.79,2.05-2.48-15.14-2.69-30.9-9.95-45.27-1.52-3-3.63-6.32.2-10.93,3.57,4.98,6.94,9.38,9.99,13.99,7.73,11.71,15.88,23.09,26.72,32.16,1.74,1.45,4.61,2.56,6.76,2.29,3.53-.44,4.42-3.69,4.19-6.92-.38-5.3-.59-10.66-1.53-15.87-1.65-9.15-3.78-18.22-5.72-27.32-.65-3.06-1.78-6.17.89-9.82,1.77,2.07,3.2,3.39,4.21,4.98,9.07,14.33,18.08,28.7,27.05,43.1,1.64,2.63,3.41,5.81,6.82,4.08,1.8-.92,3.5-4.16,3.44-6.3-.41-14.28-1.27-28.55-2.07-42.81-.25-4.42-.78-8.83-1.18-13.24.72-.26,1.44-.52,2.15-.78,1.5,1.93,3.44,3.66,4.42,5.83,7.15,15.75,14.18,31.56,21.02,47.44.95,2.21,1.25,5.14,4.18,4.12,1.62-.56,3.39-3.25,3.52-5.09.79-11.27,1.38-22.57,1.54-33.87.1-7.31-.75-14.64-.93-21.96-.05-1.98.79-3.98,1.67-8.02,12.72,21.98,16.27,45.87,30.24,66.82,1.71-3.78,3.15-5.7,3.42-7.78,1.68-12.53,3.82-25.06,4.41-37.65.74-15.96.11-31.99.17-47.98,0-1.56.73-3.12,1.13-4.68.6,0,1.2,0,1.8,0,7.67,29.3,15.33,58.59,23.11,88.29,6.82-2.55,9.13-7.75,9.79-13.98,2.58-24.49,5.08-48.99,7.63-73.49.31-2.95.77-5.88,1.16-8.82.74.05,1.47.11,2.21.16,1.58,8.71,3.42,17.38,4.67,26.13,1.78,12.46,3.08,24.99,4.69,37.47.21,1.61,1.19,3.1,1.52,4.71,1.78,8.85,7.75,16.51,6.44,26.37-.64,4.79,3.2,6.57,10.87,6.48,0-1.59.32-3.27-.06-4.77-1.21-4.71-1.62-8.99,2.13-13.07,1.4-1.52,1.54-4.34,1.92-6.62,1.18-7.14,2.53-14.28,3.22-21.47,1.6-16.53,2.96-33.08,4.15-49.64.27-3.75,1.74-5.34,6.55-5.51.65,3.77,1.68,7.5,1.88,11.27.55,10.31-.74,20.97,1.47,30.87,2.64,11.83,3.56,23.59,3.23,35.45-.25,8.81,4.38,15.67,7.01,23.34.3.87,2.03,1.24,4.3,2.53,8.83-24.55,12.76-49.6,19.76-74.18,1.82,3.21,2.95,6.49,3.5,9.86.64,3.93.66,7.96,1.16,11.92,1.53,12.18,3.19,24.34,4.73,36.52.74,5.87,1.09,11.8,2.16,17.6.31,1.7,2.47,3.06,4.76,5.69,3.82-12.24,6.25-23.24,10.69-33.35,4.55-10.37,4.9-22.23,11.31-33.44.88,2.7,1.41,3.62,1.45,4.57.71,14.28,1.35,28.56,2.02,42.84.12,2.63-.08,5.38.63,7.86,1.14,3.97,2.92,7.75,4.77,12.49,2.14.6,5.13,1.44,10.52,2.95-2.25-4.71-3.5-7.35-4.13-8.67,10.69-13.54,12.55-31.01,22.37-44.8,1.26,2.73,1.92,5.43,1.94,8.13.05,5.66-.9,11.4-.24,16.97,1.3,10.9,3.73,21.65,1.13,32.74-.31,1.31,2.02,4.39,3.49,4.66,1.66.31,4.6-1.14,5.48-2.68,5.92-10.38,11.51-20.95,17.06-31.53,1.65-3.15,3-6.38,8.61-7.27-.88,17.04-1.71,33.1-2.52,48.86,5.35,1.62,8.65,1.46,10.35-3.1.57-1.52,1.47-2.94,2.37-4.31,6.17-9.38,12.29-18.81,18.68-28.04,1.08-1.56,3.37-2.3,6.85-4.55-1.01,18.79-7.63,35.5-2.34,52.72,7.38-.94,10.65-6.18,14.45-10.64,4.53-5.32,8.69-10.98,13.51-16.01,1.45-1.52,4.57-1.45,6.92-2.11.5,2.12,1.76,4.4,1.37,6.34-1.26,6.18-3.08,12.25-4.77,18.33-2.69,9.67-1.26,15.02,6.4,20.45,4.18-3.75,8.71-7.54,12.92-11.66,4.04-3.96,7.58-8.43,11.65-12.35,2.58-2.48,5.61-4.93,9.89-2.19,1.32,5.95-1.71,10.94-3.46,16.2-1.78,5.35-3.44,10.74-5.2,16.1-1.14,3.47.36,6.23,3.14,7.57,2.07.99,5.13,1.19,7.28.43,2.72-.96,5-3.21,7.41-4.98,5.63-4.13,11.08-8.54,16.91-12.35,2.81-1.84,6.03-4.17,11.02-2-6.21,12.85-13.01,25.37-9.83,42.02,8.43-5.42,15.52-9.6,22.19-14.37,6.78-4.84,12.07-12.01,21.62-13.83-.09,7.09-3.63,11.97-6.17,17.3-2.69,5.64-5.52,11.49-6.61,17.55-1.28,7.17,4.23,10.28,10.71,6.75,1.44-.79,2.6-2.08,3.98-3,7.47-4.98,14.91-10.01,22.52-14.77,1.67-1.05,3.98-1.08,8.3-2.15-2.97,6.39-5.2,10.7-7.01,15.19-2.73,6.73-5.82,13.41-7.56,20.42-1.62,6.54,1.11,8.38,7.82,6.22,2.51-.81,4.99-1.9,7.26-3.24,5.7-3.36,11.25-6.96,16.9-10.41,2.85-1.74,5.77-3.56,9.37-.46.04,4.94-3.3,8.29-6.19,11.84-4.07,5.01-7.24,10.52-7.55,17.08-.33,7.18,4.6,10.33,10.98,7.17,4.76-2.36,9.43-4.92,14.05-7.56,4.76-2.72,9.74-3.69,15.34-2.97,1.05,5.45-1.92,8.44-5.08,11.47-2.38,2.28-5.12,4.5-6.62,7.32-3.61,6.77.55,13.7,8.19,13.57,4.2-.07,8.42-1.31,12.56-2.31,5.64-1.37,11.21-3.01,17.42-4.7.16,8.64-4.82,12.9-8.91,17.52-7.26,8.2-5.45,14.84,5.35,16.68,5.11.87,10.59.05,15.84-.56,4.31-.5,8.54-1.88,12.18,1.83,0,.69.26,1.51-.04,1.96-2.21,3.29-4.62,6.46-6.81,9.77-5.23,7.89-3.66,13.05,5.28,15.94,5.35,1.74,10.97,2.69,16.5,3.85,7.3,1.53,8.09,2.46,7.74,10.03-.03.66-.07,1.34-.23,1.98-1.56,6.26.9,10.29,5.76,14.55,6.66,5.84,12.81,12.62,17.83,19.92,15.85,23.04,36.91,39.19,62.95,48.69,22.91,8.36,46.58,14.05,71,15.17,11.18.52,22.51-.69,33.69-1.94,10.13-1.14,15.91-7.88,17.84-17.59,1.98-9.93-2.39-17.28-10.22-23.2-11.48-8.68-25.09-10.02-38.6-11.47-18.2-1.95-36.47-3.3-54.68-5.11-3.02-.3-6.84.03-8.38-4.86,2.53-.94,4.86-2.22,7.35-2.68,13.72-2.51,27.52-4.63,41.22-7.27,13.68-2.63,27.39-5.28,40.86-8.8,5.19-1.35,11.17-3.72,12.56-10.18,1.8-8.38-4.17-20.04-14.52-21.35-19.32-2.44-38.44-3.13-57.75-.79-3.88.47-7.9-.28-11.85-.4-3.93-.12-7.87-.33-11.79-.17-2.3.09-4.6,1.3-6.83,1.14-1.64-.11-3.18-1.63-4.76-2.52,1.15-1.4,2.04-3.55,3.49-4.05,3.72-1.28,7.83-1.44,11.56-2.72,13.53-4.64,27.12-9.17,40.38-14.51,9.22-3.71,18.29-8.07,26.75-13.25,7.49-4.59,9.03-12.09,6.25-21.21-3.05-9.99-6.99-13.4-16.78-13.63-5.98-.14-12.11-.33-17.93.8-15.35,2.98-30.6,6.46-45.8,10.13-12.91,3.12-25.68,6.84-38.56,10.11-1.6.41-3.48-.28-5.23-.45,2.37-3.65,5.18-5.78,8.25-7.45,17.24-9.42,34.69-18.45,51.75-28.17,9.82-5.59,19.4-11.74,28.46-18.49,9.54-7.11,10.43-13.82,5.02-25.23-6.12,6.41-8.2,6.15-11.55-1.62-1.32-3.05-2.64-6.14-3.54-9.33-1.52-5.33-5.13-6.77-9.97-5.52-4.17,1.08-8.37,2.36-12.27,4.17-41.07,19.02-82.09,38.18-123.13,57.26-5.9,2.74-11.88,5.3-17.82,7.95-.37-.59-.74-1.18-1.11-1.78,2.57-2.38,4.9-5.09,7.74-7.08,28.63-20.07,57.4-39.95,86.02-60.03,14.17-9.94,28.54-19.66,42.05-30.44,11.57-9.23,11.46-13.01,3.21-25.98-8.01-3.12-13.14,4.33-19.95,6.02-3.8-9.69,2.82-17.01,4.5-25.67-5.23-1.6-10.12-1.15-14.71.76-5.21,2.17-10.48,4.47-15.16,7.56-23.92,15.77-47.71,31.72-71.43,47.77-17.92,12.12-35.66,24.5-53.53,36.69-1.5,1.02-3.36,1.52-5.05,2.26,1.38-4.23,3.61-7.43,6.41-10,9.81-8.99,19.86-17.7,29.74-26.62,26.45-23.88,52.88-47.78,79.26-71.75,5.17-4.7,10.11-9.67,15.09-14.58,5.17-5.11,6.22-10.7,1.83-16.82-9.79-2.8-16.9,2.51-23.9,7.57-12.13,8.78-23.72,18.35-36.14,26.69-31.53,21.16-63.11,42.2-92.59,66.22-2.4,1.95-5.21,3.39-7.83,5.06-.55-.6-1.11-1.2-1.66-1.79,2.03-2.78,3.71-5.93,6.15-8.29,33.24-32.23,66.6-64.34,99.91-96.5,5.99-5.78,12.08-11.46,17.78-17.51,3.36-3.57,6.62-7.51,6.49-13.16-8.95-4.34-14.98,9.69-24.64,3.33.58-6.76,1.19-13.78,1.82-21.18-8.02-.36-13.74,1.84-18.86,5.8-11.06,8.56-22.22,17-33.07,25.81-21.98,17.84-43.78,35.9-65.66,53.86-11.83,9.72-23.64,19.47-35.57,29.07-1.5,1.21-3.7,1.55-5.57,2.3-.47-.56-.93-1.11-1.4-1.67,1.83-2.56,3.42-5.34,5.54-7.63,8.38-9.04,16.95-17.9,25.41-26.87,12.34-13.08,24.74-26.09,36.93-39.31,16.02-17.38,32.17-34.66,47.6-52.56,4.65-5.39,7.7-12.45,10.34-19.2,2.87-7.33-.6-16.26-6.6-20.46-6.59-4.61-12.8-2.69-18.45,1.54-6.11,4.58-12.51,9.08-17.58,14.69-21.21,23.47-41.92,47.39-62.91,71.07-8.07,9.11-13.65,20.46-24.36,27.17-1.98,1.24-4.14,2.2-7.83,4.14,2.65-7.85,10.63-10.61,7.83-18.61,7.92,1.25,13.52-.42,16.27-7.58-2.25-4.51-4.45-8.91-5.91-11.83,5.28-5.74,10.09-10.55,14.39-15.79,3.15-3.84,5.69-8.2,8.38-12.4,12.58-19.62,25.41-39.1,37.51-59.01,3.54-5.83,5.47-12.81,7.23-19.49,1.34-5.09-.59-10.28-4.86-13.3-4.37-3.08-9.01-.96-12.9,2.03-4.22,3.24-8.81,6.23-12.27,10.18-13.82,15.77-27.49,31.69-40.79,47.9-22.81,27.79-45.29,55.84-67.95,83.75-1.97,2.43-4.09,4.97-8.67,4.14,1.11-2.83,1.63-5.11,2.79-7,17.42-28.35,35.08-56.56,52.35-85,11.57-19.05,22.93-38.25,33.69-57.76,3.46-6.27,5.2-13.65,6.78-20.74,1.72-7.71-3.77-12.68-11.47-11.28-1.54.28-3.12.39-5.16.64-.79-2.59-1.49-4.75-2.1-6.93-2.35-8.35-6.31-9.95-13.73-5.36-1.97,1.22-4,2.57-5.5,4.3-9.13,10.56-19.13,20.55-26.94,32.02-20.25,29.72-39.54,60.09-59.14,90.25-5.81,8.93-11.26,18.09-17.05,27.04-2.19,3.38-4.24,7.4-11.11,6.81,2.09-4.89,3.73-8.75,5.38-12.61,8.23-19.24,15.99-38.7,24.81-57.66,12.48-26.84,26.16-53.12,38.44-80.05,4.21-9.23,5.98-19.63,8.42-29.6.83-3.39,1-7.43-4.78-9.33-2.05,2.63-4.61,5.19-6.31,8.24-15.11,27.02-30.07,54.13-45.06,81.22-13.54,24.47-27.03,48.98-40.65,73.41-1.35,2.42-3.43,4.44-5.16,6.64-.74-.33-1.48-.66-2.22-.99.77-2.93,1.23-5.99,2.37-8.77,3.63-8.92,7.66-17.68,11.26-26.61,10.95-27.15,21.72-54.38,32.66-81.53,5.6-13.89,11.93-27.5,16.9-41.6,2.26-6.4,3.04-13.74,2.66-20.55-.69-12.22-17.28-20.08-28.11-14.25-8.55,4.6-15.03,11.05-18.95,19.84-13.04,29.17-26.17,58.3-38.78,87.65-9.32,21.71-17.85,43.77-26.82,65.64-1.18,2.89-1.65,6.71-7.35,6.75.64-3.06,1.05-5.86,1.81-8.56,3.16-11.2,6.51-22.34,9.64-33.55,10.22-36.51,20.42-73.03,30.52-109.57,2.93-10.58,5.83-21.2,8.06-31.94.92-4.41.83-9.42-.35-13.73-.72-2.63-4.1-5.5-6.84-6.27-1.75-.49-5.33,2.14-6.7,4.26-4.49,6.97-8.97,14.07-12.33,21.61-14.53,32.58-25.84,66.35-36.4,100.39-1.71,5.53-2.94,11.48-9.24,16.97-.49-3.3-1.24-5.23-.93-6.97.58-3.23,2.1-6.28,2.66-9.51,1.79-10.47,3.37-20.97,4.93-31.47,3.63-24.35,7.61-48.66,10.59-73.08,1.2-9.84.34-19.96.08-29.94-.11-4.31-2.39-7.51-6.87-8.77-4.27-1.2-7.38.8-9.35,4.01-4.5,7.34-9.47,14.6-12.55,22.55-4.79,12.39-8.59,25.22-12.05,38.06-8.47,31.45-16.47,63.03-24.76,94.54-.77,2.91-2.2,5.65-3.32,8.47-2.07-2.09-2.25-3.62-2.32-5.15-1.41-30.88,5.74-60.92,8.91-91.35,2-19.19,4.77-38.32,6.16-57.55.43-5.95-1.55-12.61-4.13-18.14-5.11-10.95-16.68-12.19-24.02-2.41-4.7,6.27-8.48,13.62-11.03,21.05-8.43,24.63-13.15,50.18-16.73,75.9-4.45,31.94-11.34,63.56-12.75,95.92-.12,2.69-1.33,5.34-2.04,8.01-.89-.04-1.78-.08-2.67-.12-.56-3.68-1.68-7.37-1.6-11.03.69-32.64,1.69-65.28,2.42-97.92.57-25.64,1.26-51.28,1.05-76.92-.05-6.35-2.56-13.09-5.42-18.92-3.94-8.03-15.08-8.47-19.46-.8-3.23,5.65-6.23,12.21-6.69,18.55-1.73,23.91-2.67,47.89-3.35,71.86-.75,25.97-.84,51.97-1.35,77.95-.05,2.58-1.05,5.14-1.61,7.71-.76-.06-1.51-.13-2.27-.19-1.28-7.76-2.89-15.49-3.74-23.3-1.09-9.91-1.26-19.92-2.38-29.82-1.72-15.19-4.2-30.3-5.81-45.5-2.24-21.23-5.23-42.3-11.71-62.7-1.5-4.71-3.88-9.16-5.95-13.68-1.67-3.63-4.63-5.27-8.57-5.98-14.19-2.53-19.52.95-23.05,14.95-3.31,13.1-3.71,26.43-2.77,39.71,3.06,42.82,6.64,85.61,9.86,128.42.35,4.7,1.98,9.89-2.62,14.45-.93-1.36-1.99-2.3-2.28-3.44-1.55-6.1-3.16-12.21-4.29-18.4-5.55-30.41-10.53-60.93-16.56-91.25-3.82-19.19-8.79-38.19-13.98-57.07-1.54-5.6-5.55-10.52-8.51-15.71-3.37-5.91-8.89-6.54-14.79-5.53-5.66.96-10.73,2.29-12.67,9.25-2.68,9.63-2.11,19.18-.77,28.72,4.68,33.29,9.66,66.54,14.46,99.82.29,2.03.04,4.14.04,6.21-.72.19-1.45.37-2.17.56-1.72-3.41-3.88-6.68-5.1-10.26-12.72-37.48-25.28-75.01-37.9-112.52-.63-1.88-.94-4.1-2.16-5.5-1.12-1.27-3.28-2.21-4.96-2.18-1.06.02-2.75,2-2.97,3.3-.66,3.92-.81,7.94-1.04,11.92-1.06,18.11,2.02,35.94,5.17,53.56,4.79,26.81,11.09,53.36,16.67,80.03.54,2.6.53,5.31.77,7.97-3.05-1.01-4.54-2.34-5.23-4-3.32-7.99-6.47-16.04-9.59-24.11-9.09-23.58-18.22-47.15-27.18-70.79-5.78-15.23-11.25-30.58-16.94-45.84-1.5-4.02-3.65-7.03-8.91-5.71-4.73,1.18-6.73,3.95-6.27,8.63.55,5.62.44,11.43,1.93,16.8,7.7,27.89,15.66,55.72,23.84,83.48,7.62,25.83,15.61,51.56,23.5,77.31.76,2.48,1.89,4.82-1.69,7.58-2.72-5.53-5.11-10.47-7.58-15.38-5.83-11.59-12.05-23-17.49-34.78-11.72-25.38-22.7-51.1-34.65-76.36-6.68-14.12-14.4-27.77-22.21-41.31-3.77-6.54-6.43-6.91-13.4-4.6-7.05,2.33-8.81,4.21-8.51,11.49.26,6.27.81,12.68,2.4,18.71,4.66,17.73,10.77,34.9,19.26,51.3,5.48,10.59,9.27,22.07,13.72,33.18.44,1.1.21,2.47.45,6.3-3.43-3.67-5.56-5.48-7.12-7.69-12.05-17.16-23.71-34.61-36.07-51.54-8.63-11.82-18.15-22.98-27.34-34.38-1.87-2.32-3.84-4.85-8.49-2.68.18,2.81-.06,6.11.68,9.18,1.31,5.49,2.64,11.09,4.94,16.2,12.84,28.51,25.76,56.99,39.1,85.27,7.24,15.34,15.45,30.22,23.02,45.4,1.89,3.79,4.69,7.8,1.42,14-5.95-8.51-10.97-15.87-16.17-23.09-12.64-17.57-25.4-35.06-38.05-52.62-10.7-14.86-20.97-30.06-32.11-44.59-6.24-8.14-13.5-15.61-20.99-22.65-5.94-5.58-13.43-5.47-20.51-1.8-6.49,3.37-10.26,11.88-8.69,19.72,1.31,6.51,2.47,13.28,5.25,19.2,8.04,17.15,16.1,34.38,25.59,50.74,12.35,21.28,26.12,41.73,39.19,62.6,2.94,4.7,5.52,9.63,8.26,14.45ZM595.19,1274.04c-.25,3.19-.06,5.41-.65,7.4-3.15,10.52-6.73,20.92-9.72,31.48-12.33,43.54-24.58,87.11-36.68,130.72-2.31,8.32-3.77,16.88-5.74,25.31-4.45,18.97,14.09,29.18,26.94,25.7,7.79-2.11,13.74-6.72,17.06-14.19,5.12-11.54,10.56-22.97,14.99-34.78,12.73-33.93,24.99-68.03,37.56-102.02.88-2.38,2.8-4.37,4.24-6.55.66.34,1.32.68,1.98,1.03-.62,4.55-1.1,9.13-1.89,13.65-1.66,9.51-3.63,18.96-5.21,28.48-3.81,22.98-7.49,45.98-11.17,68.97-2.21,13.79-4.64,27.57-6.3,41.43-.62,5.14,0,10.69,1.29,15.74,1.79,7.08,6.44,7.89,11.48,2.65,6.4-6.66,10.17-14.82,12.63-23.53,6.6-23.37,13.23-46.73,19.31-70.24,5.98-23.14,11.26-46.47,16.93-69.69,1.33-5.45,2.72-10.92,4.56-16.21.75-2.18,2.76-3.92,5.07-7.05,3.05,8.91,1.01,16.12-.02,23.17-3.43,23.38-7.26,46.71-10.83,70.07-3.78,24.69-7.89,49.35-8.17,74.42-.07,5.98-.3,12.03.42,17.94.71,5.84,1.73,12.95,8.31,14.55,7.43,1.81,12.16-4,16.12-9.6,1.14-1.62,2.18-3.41,2.84-5.27,3.23-9.05,7.09-17.97,9.32-27.27,8.58-35.9,16.59-71.94,24.94-107.89.68-2.94,2.36-5.65,3.57-8.47.9.12,1.79.25,2.69.37.51,3.38,1.41,6.76,1.46,10.16.15,10.66.07,21.33-.1,32-.5,31.98-1.17,63.96-1.58,95.95-.07,5.62.09,11.43,1.45,16.82.77,3.06,3.72,6.75,6.57,7.81,4.11,1.53,8.8-.2,11.23-4.37,2.32-3.98,4.69-8.24,5.63-12.67,2.62-12.34,5.2-24.76,6.52-37.28,2.63-24.84,4.58-49.75,6.49-74.66,3.51-45.85,5.05-91.61,0-137.58-2.54-23.16-5.11-46.3-8.48-69.35-.54-3.69-.59-7.7-4.05-11.08-3.15,5.46-6.75,9.96-8.55,15.1-5.59,15.96-10.59,32.14-15.65,48.29-2.2,7.01-4.21,14.05-8.75,20.37-2.5-28.08,5.37-56.76-6.98-86.14-13.61,27.65-22.12,55.3-31.98,82.48-.23-28.8.87-57.39-.7-87.78-2.56,2.73-4.24,3.87-5.01,5.45-9.12,18.81-18.51,37.53-23.07,58.17-.68,3.07-1.39,6.84-7,5.74-1.51-23.71,3.43-47.11,4.43-73.01-3.57,2.93-5.86,4.46-7.73,6.41-9.36,9.79-14.5,22.22-21.03,33.8-4.8,8.5-8.79,17.58-16.41,24.55.4-25.26,13.95-48.31,11.97-74.12-3.41,2.07-6.27,4.32-7.98,7.25-8.21,14.07-16.12,28.32-24.11,42.51-2.19,3.89-3.52,8.52-10.04,11.12,4.1-23.72,7.97-46.06,11.85-68.52-5.53-2.1-7.78.32-10.1,4.24-7.29,12.29-14.93,24.38-22.53,36.48-1.97,3.14-3.41,7.41-9.81,6.01,5.19-18.32,10.4-36.31,10.97-54.87-5.33-2.14-7.71.88-10.07,3.7-8.11,9.7-16.11,19.49-24.25,29.16-2.9,3.44-5.33,7.74-11.92,7.81.53-3.92.46-7.6,1.58-10.87,3.65-10.68,7.73-21.22,11.66-31.81,1.69-4.56,4.09-9.03,1.99-14.05-5.89-1.39-9.19,2.2-12.45,5.45-11.58,11.5-23.03,23.12-34.55,34.69-1.93,1.94-3.36,4.82-8.03,4.12,1.17-3.39,1.79-6.26,3.09-8.79,6.22-12.13,12.71-24.12,18.9-36.26,2.17-4.25,5.18-8.45,3.96-14.15-5.56-1.14-9.67,1.39-13.3,4.02-13.18,9.56-26.09,19.51-39.19,29.2-3.21,2.38-6.73,4.33-10.1,6.48-.56-.62-1.13-1.23-1.69-1.85,5.63-9.25,11.34-18.45,16.88-27.75,5.68-9.52,14.42-17.35,16.71-29.17-9.83-3.68-17.51.46-24.88,5.01-9.91,6.12-19.52,12.74-29.37,18.97-2.89,1.83-5.83,4.59-10.01,2.33,6.55-16.71,20.97-28.23,28.47-43.59-4.43-5.27-8.19-4.29-12.43-2-14.64,7.9-29.38,15.62-44.12,23.32-2.03,1.06-4.29,1.69-6.45,2.52-.43-.6-.87-1.2-1.3-1.8,3.02-4.69,5.64-9.71,9.14-14.01,6.3-7.75,13.16-15.04,19.73-22.57,2.33-2.67,5.61-5.12,2.83-9.98-4.95-1.45-10.06-1.38-15.12.97-13.87,6.45-27.74,12.9-41.64,19.29-2.23,1.02-4.6,1.71-7.89,2.91.7-6.95,4.21-11.04,7.68-14.8,7.68-8.3,15.84-16.18,23.7-24.31,1.49-1.54,2.55-3.48,4.54-6.28-3.38-1.26-5.78-2.98-8.05-2.84-6.56.42-13.28.85-19.53,2.66-6.66,1.93-12.84,5.46-19.25,8.25-6.52,2.84-13.06,5.63-20.13,8.68-.69-5.34,2.77-7.36,5.07-9.9,7.82-8.62,15.81-17.1,23.6-25.75,2.62-2.91,5.65-5.94,2.88-11.58-25.23-.4-45.46,15.42-68.8,22.67,1.56-3.38,3.49-6.29,5.96-8.64,10.12-9.64,20.39-19.13,30.63-28.64,5.01-4.65,4.04-10.01-2.47-11.76-2.81-.75-6.08-.98-8.88-.31-5.78,1.37-11.47,3.26-17.04,5.35-10.4,3.89-20.7,8.06-31.04,12.12,1.28-4.36,3.26-7.45,5.86-9.86,8.06-7.46,16.39-14.64,24.56-21.99,2.29-2.06,4.38-4.34,7.25-7.2-10.25-5.56-19.4-4.86-28.36-2.01-7.58,2.41-14.8,5.93-22.22,8.84-3.89,1.53-7.82,3.64-12.88.84,1.33-2.2,2.35-4.17,3.63-5.97,6.58-9.21,16.27-14.56,25.44-20.6,1.93-1.27,4.75-4.35,4.31-5.4-1.14-2.73-3.49-5.48-6.09-6.91-2.05-1.13-5.27-.8-7.81-.29-8.8,1.76-17.56,3.76-26.28,5.89-10.16,2.48-19.95,6.65-31.33,6.98,2.72-7.56,8.46-11.02,14.27-14.12,8.2-4.38,16.74-8.13,24.89-12.59,2.32-1.27,4.88-3.82,5.41-6.22.83-3.68-2.12-6.21-5.63-7.08-3.18-.78-6.64-1.65-9.78-1.17-10.82,1.67-21.57,3.84-32.32,5.97-6.51,1.29-12.65,4.67-20.1,3.3,1.95-3.19,4.17-5.93,6.97-7.79,9.13-6.09,18.58-11.69,27.66-17.85,2.49-1.69,5.81-4.68,5.79-7.05-.04-4.7-4.92-4.36-8.47-4.88-.33-.05-.66-.07-1-.09-15.45-.71-30.55.71-45.06,6.61-4.64,1.89-9.6,2.97-14.42,4.43-.41-.77-.82-1.55-1.23-2.32,9.25-15.06,27.41-19.63,40.43-31.32-8.41-4.58-16.45-4.25-24.24-2.84-15.04,2.73-29.95,6.18-44.93,9.3-3.37.7-6.78,1.23-10.18,1.84,1.05-4.62,2.64-8.03,5.23-10.27,6.03-5.19,12.59-9.76,18.84-14.7,1.76-1.39,3.21-3.19,4.8-4.8-12.96,1.54-24.72-.1-36.61-1.59-9.87-1.24-19.96-1.55-29.91-1.13-7.23.31-14.49,2.1-21.54,3.96-7.78,2.05-12.19,7.97-14.08,15.51-1.86,7.4,3.16,11.79,8.13,15.84,2.56,2.09,5.37,4.11,8.4,5.33,9.22,3.73,18.6,7.05,27.93,10.53,4.46,1.67,8.93,3.33,13.39,5-.11.87-.23,1.73-.34,2.6-9.97,1.37-19.92,3.11-29.94,3.97-5.59.48-10.41,1.58-14.27,5.88-4.66,5.18-2.31,12.95,4.57,14.48,2.27.5,4.62.69,6.94.89,18.92,1.63,37.85,2.42,56.82.78,3.13-.27,6.31-.04,9.7-.04,0,4.28-1.51,5.54-4.62,6.37-12.16,3.23-24.35,6.44-36.25,10.46-7.51,2.53-14.61,6.33-21.73,9.9-2.63,1.32-5.66,3.74-3.71,7.02.92,1.55,4.47,2.39,6.69,2.18,22.84-2.21,45.64-4.72,68.47-7.08,4.97-.51,9.97-.7,14.95-1.11,4.75-.39,9.5-.87,14.86-1.36-.6,5.15-2.85,6.81-6.5,7.65-11,2.52-22.16,4.64-32.88,8.08-17.73,5.7-35.46,11.67-50.73,22.91-8.27,6.09-9.18,10.45-3.64,22.21,44.08-4.76,86.76-19.57,132.21-28.2-3.97,7.5-10.16,8.75-15.31,11.24-18.88,9.1-38.16,17.43-56.72,27.15-10.85,5.68-20.84,13.1-30.78,20.35-8.64,6.3-11.08,16.13-7.52,25.82,3.29,8.97,10.21,13.41,21.44,12.46,7.23-.61,14.64-1.72,21.47-4.06,32.72-11.2,65.28-22.88,97.89-34.44,3.27-1.16,6.44-2.63,10.19-4.18,0,6.29-3.63,8.13-7.1,10.01-11.42,6.18-23.12,11.9-34.25,18.56-17.69,10.59-35.33,21.32-52.37,32.9-10.58,7.19-18.31,17.46-23.45,29.34-3.45,7.99-2.5,15.78,2.93,22.56,5.19,6.47,11.94,7,19.83,5.13,15.66-3.71,30.27-9.97,44.86-16.48,26.44-11.79,52.92-23.46,79.45-35.05,2.76-1.21,5.79-3.24,9.92-.62-1.72,2.46-2.8,5.04-4.71,6.55-4.43,3.49-9.47,6.22-13.92,9.69-29.43,22.93-58.83,45.91-88.08,69.06-3.87,3.06-7.23,6.95-10.18,10.93-3.29,4.45-2.42,12.84,1.06,16.85,3.07,3.54,6.31,3.48,13.59-.26.59-.3,1.19-.6,1.76-.96,9.59-6.03,19.08-12.21,28.77-18.06,29.64-17.89,59.29-35.77,89.11-53.38,6.64-3.92,13.96-6.72,20.96-10.03.47.66.94,1.31,1.41,1.97-2.02,2.46-3.78,5.2-6.1,7.33-14.21,13.09-28.22,26.44-42.92,38.96-22.39,19.08-42.37,40.35-60.8,63.19-5.01,6.21-6.37,13.01-5.04,20.59,2.47,14.11,9.07,17.33,21.72,10.66.88-.47,1.82-.87,2.62-1.46,11.48-8.47,23.38-16.45,34.33-25.56,26.11-21.72,51.76-44,77.68-65.96,2-1.7,4.63-2.66,6.97-3.96.33,3.61-.3,5.81-1.6,7.49-5.1,6.58-10.14,13.24-15.7,19.43-22.03,24.54-44.28,48.89-66.38,73.36-4.91,5.43-9.69,11-14.29,16.69-2.47,3.06-4.63,6.47-2.37,12.11,3.68-2.25,7.26-3.88,10.17-6.3,17.16-14.27,34.28-28.58,51.18-43.15,21.19-18.26,42.1-36.84,63.28-55.11,2.79-2.41,6.42-3.85,9.66-5.74.63,2.54.41,3.88-.34,4.75-24.48,28.57-48.94,57.16-73.56,85.62-10.46,12.09-21.34,23.81-31.85,35.85-2.15,2.46-3.66,5.53-5.2,8.46-2.66,5.04-1.37,8.78,4.04,11.23,1.29-.87,2.42-1.55,3.45-2.33,21.56-16.31,41.04-34.9,60.44-53.68,27.26-26.39,55.41-51.85,83.23-77.67,2.25-2.09,4.38-4.88,9.81-4.16-2.96,4.52-4.93,8.26-7.57,11.44-24.22,29.22-48.58,58.33-72.82,87.53-3.82,4.61-7.16,9.61-10.88,14.31-9.5,12-19.2,23.85-28.6,35.94-3.78,4.87-5.71,10.62-4.48,16.86.33,1.7,1.89,3.93,3.36,4.4,1.38.44,3.88-.68,5.05-1.91,9.66-10.07,18.97-20.48,28.69-30.49,24.36-25.1,48.84-50.07,73.38-74.99,2.14-2.18,5.05-3.6,8.64-6.08.31,6.44-3.71,8.53-5.94,11.44-8.1,10.56-16.76,20.69-24.73,31.33-14.74,19.69-29.12,39.67-43.72,59.47-3.27,4.43-7.44,8.38-6.62,16.23,7.47-6.37,14.63-11.31,20.36-17.57,22.04-24.06,43.59-48.57,65.39-72.85,2.53-2.82,5.5-5.24,8.26-7.84.64.44,1.28.88,1.91,1.31-1.25,3.24-2.09,6.71-3.8,9.68-14.66,25.4-30.82,49.8-48.38,73.31-8.15,10.91-15.34,22.56-22.6,34.1-1.97,3.13-2.61,7.08-3.86,10.66.67.49,1.35.97,2.02,1.46,5.13-4.02,10.91-7.45,15.28-12.18,17.63-19.07,35.4-38.07,52.03-58,17.91-21.46,34.71-43.85,51.77-66.02,7.31-9.5,13.96-19.5,21.06-29.16,1.55-2.1,3.76-3.72,5.67-5.56.71.48,1.41.97,2.12,1.45-.87,2.67-1.4,5.5-2.65,7.97-18.26,35.99-40.07,69.9-61.52,104-12.94,20.58-26.44,40.81-39.84,61.09-4.05,6.13-5.65,12.77-5.23,19.89.21,3.56.35,8.29,4.63,9.01,2.69.45,6.6-1.21,8.68-3.25,5.45-5.33,10.89-10.91,15.09-17.22,14.58-21.88,28.56-44.17,42.93-66.21,14.91-22.87,29.97-45.65,45.07-68.4,1.45-2.18,3.58-3.91,5.4-5.85.67.41,1.34.81,2.01,1.22-.53,2.46-.76,5.05-1.67,7.36-1.95,4.95-4.3,9.75-6.4,14.64-12.21,28.45-24.38,56.92-36.6,85.37-7.88,18.35-15.81,36.67-23.69,55.01-2.27,5.29-2.84,10.69-.62,18.11,2.92-2.55,5.49-3.94,6.83-6.1,10.36-16.69,20.78-33.34,30.57-50.36,8.63-14.99,16.4-30.48,24.71-45.66,2.1-3.85,4.2-8.11,11.26-8.65-1.49,4.51-2.51,7.9-3.72,11.22-9.81,26.89-19.93,53.67-29.34,80.71-3.03,8.71-4.95,17.98-6.04,27.15-1.12,9.37,3.67,12.11,12.17,7.64,2.85-1.5,5.63-3.7,7.57-6.25,3.21-4.21,6.18-8.74,8.45-13.52,8.98-18.92,17.74-37.95,26.42-57.01,15.3-33.6,30.49-67.25,45.7-100.89,1.66-3.67,3.81-6.72,9-8.57ZM1226.89,1160.69c1.99,1.26,3.77,2.13,5.26,3.37,15.9,13.15,31.72,26.39,47.62,39.53,16.94,14,33.81,28.11,51.01,41.78,5.16,4.1,11.31,6.96,17.06,10.29,3.7,2.14,7.6,2.23,11.52.53,14.35-6.23,19.63-15.21,12.3-29.1-5.04-9.56-12.01-18.45-19.53-26.29-22.83-23.8-46.35-46.94-69.58-70.36-2.34-2.36-4.81-4.7-6.64-7.44-1.01-1.5-.8-3.82-1.48-7.71,8.09,4.03,14.5,6.77,20.47,10.25,31.62,18.48,63.08,37.23,94.73,55.67,5.42,3.16,11.32,5.68,17.27,7.68,6.02,2.02,9.29-.32,11.33-6.3,2.09-6.12.34-11.28-3.9-15.58-5.61-5.68-11.6-10.98-17.37-16.51-2.46-2.36-4.76-4.89-7.96-8.2,11.41-3.49,16.93,9.28,27.78,6.47-11.76-9.6-22.42-18.45-33.24-27.09-10.67-8.52-21.55-16.78-32.27-25.23-10.83-8.53-23.33-15.05-31.92-26.71,3.42-.09,6.48.54,9.23,1.82,32.6,15.17,65.14,30.45,97.72,45.68,6.03,2.82,12.02,5.81,18.26,8.07,2.48.9,6.2,1.03,8.32-.24,7.46-4.47,8.46-17.68,1.87-23.28-4.55-3.87-9.51-7.32-14.58-10.51-19.44-12.24-39.02-24.24-58.47-36.45-3.78-2.37-7.22-5.3-11.29-8.31,4.36-3.44,7.16-1.37,10.21-.36,15.45,5.13,30.75,10.91,46.51,14.84,14.17,3.53,28.83,4.99,43.59,2.65,10.49-1.67,14.89-9.85,18.49-17.89,3.31-7.39-.42-14.05-5.79-19.85-16.4-17.69-36.62-29.49-58.43-39.11-7.67-3.39-16.59-4.45-23.61-11.66,2.22-.75,3.73-1.84,5.02-1.61,15.07,2.6,30.09,5.48,45.15,8.12,16.37,2.87,32.75,5.72,49.17,8.26,6.57,1.01,9.53-.98,11.88-6.5,2.41-5.65,1.58-10.44-3.36-14.26-4.18-3.24-8.64-6.41-13.46-8.49-18.27-7.87-36.75-15.26-55.11-22.94-.99-.41-1.56-1.83-2.96-3.59,2.68-1.16,4.63-2.67,6.63-2.74,5.63-.17,11.35-.24,16.91.55,13.15,1.87,26.19,4.49,39.33,6.32,5.09.71,10.36.12,15.9.12,0-5.11-.09-9.77-5.07-12.39-13.21-6.96-26.45-13.65-41.75-15.13-4.58-.44-8.96-3.01-13.43-4.61.15-.77.31-1.54.46-2.31h71.87c3.65-16.76-.74-23.21-16.04-24.88-4.09-.45-8.19-.7-12.29-1.04-.17-.85-.33-1.71-.5-2.56,6.14-2.95,12.3-5.89,18.43-8.87,5.66-2.75,11.7-4.96,16.82-8.5,6.2-4.28,11.64-10.97,10.11-18.41-3.1-15.05-7.04-22.34-23.76-23.23-2.32-.12-4.68-.18-6.99.07-21.52,2.26-43.04,4.57-64.54,6.96-1.06.12-2.03,1.08-4.15,2.27,7.27,4.19,14,7.2,19.65,11.6,5.56,4.32,13.31,6.97,16.23,16.2-3.14-.45-4.73-.57-6.27-.91-20.11-4.41-40.19-8.98-60.35-13.19-4.17-.87-8.63-.81-12.91-.51-1.97.14-3.84,1.89-5.75,2.91,1.24,1.7,2.13,3.92,3.77,5,11.39,7.46,22.97,14.64,34.4,22.04,1.74,1.12,3.01,2.96,4.5,4.47-.25.62-.49,1.24-.74,1.86-4.48-.51-9.07-.57-13.43-1.6-13.58-3.22-27-7.11-40.62-10.11-6.26-1.38-12.99-2.24-19.68,3.48,7.51,7.32,17.69,8.61,25.13,14.34,7.73,5.95,16.84,10.14,24.47,18.44-8.31,1.2-14.97-.61-21.59-2.01-13.31-2.81-26.52-6.13-39.85-8.82-5.2-1.05-10.4-.19-16.12,4.75,19.15,12.3,38.6,21.68,58.83,32.44-2.9,1.19-4.42,2.43-5.78,2.27-8.53-1.01-17.11-1.93-25.51-3.66-11.05-2.28-21.87-5.7-32.94-7.82-8.22-1.58-15.31,1.47-21.44,7.94,1.83,1.38,2.84,2.22,3.93,2.93,13.66,8.9,27.36,17.74,41,26.68,3.45,2.26,7.02,4.6,7.32,11.25-9.54-3.09-17.95-5.86-26.4-8.53-10.14-3.2-20.2-6.75-30.51-9.28-6.17-1.51-13.01-2.75-19.26,3.61,20.61,13.48,40.9,26.43,57.26,44.66-5.1-.5-9.82-1.71-14.29-3.52-15.68-6.37-31.19-13.18-46.96-19.32-7.28-2.84-15.02-4.14-24.08-.12,3.74,3.44,6.6,6.08,9.48,8.73,8.32,7.64,16.72,15.19,24.91,22.98,2.98,2.84,5.88,6.05,5.03,11.41-7.5-2.67-14.26-5.12-21.06-7.5-8.47-2.95-16.9-6.02-25.46-8.69-5.29-1.65-10.79-2.58-17.61,1.06,3.28,3.45,5.58,6.56,8.52,8.83,10.54,8.14,21.41,15.87,31.95,24.02,6.02,4.65,12.16,9.3,17.6,16.54-15.09-5.46-28.73-10.37-42.36-15.32-13.8-5.02-27.59-10.09-41.38-15.13-.52.7-1.05,1.4-1.57,2.1,2.38,3.36,4.32,7.16,7.21,9.98,8.58,8.37,17.5,16.4,26.35,24.49,4.17,3.82,8.35,7.57,8.85,15.01-3.95-1.07-7.55-1.52-10.67-2.99-13.24-6.22-26.31-12.77-39.48-19.13-6.07-2.93-12.33-4.15-20.43-1.39,2.82,3.94,4.77,7.28,7.31,10.08,8.5,9.37,17.27,18.49,25.82,27.82,3.01,3.28,6.47,6.52,5.95,12.35-1.92-.51-3.27-.61-4.34-1.2-9.31-5.14-18.51-10.49-27.87-15.53-9.08-4.88-18.27-9.56-27.51-14.11-3.13-1.54-6.62-3.01-10.4.61,2.85,4.79,5.35,9.45,8.28,13.83,6.28,9.4,12.9,18.58,19.13,28.01,2.25,3.4,5.37,6.92,2.42,12.83-3.01-2.02-5.68-3.68-8.22-5.52-11.58-8.39-22.98-17.02-34.74-25.13-4.2-2.89-9.01-5.67-15.73-2.99,1.32,2.97,2.28,5.69,3.67,8.18,6,10.75,12.18,21.41,18.18,32.16,1.47,2.63,2.54,5.49,3.79,8.24-.68.44-1.35.88-2.02,1.32-17.53-10.58-31.86-25.38-48.6-38.89.11,2.37-.13,3.66.26,4.73,4.57,12.82,9.23,25.6,13.86,38.39,1.41,3.88,2.83,7.75,4.25,11.63-.69.48-1.38.96-2.08,1.44-2.41-1.9-5.07-3.56-7.2-5.74-9.75-9.99-19.29-20.17-29.07-30.13-1.17-1.19-3.3-1.44-6.45-2.72.5,4.84.33,8.5,1.33,11.81,2.21,7.3,4.98,14.44,7.58,21.61,2.4,6.61,6.05,12.92,5.42,21.03-12.4-3.49-15.66-15.76-24.45-22.18-8.59-6.27-15.44-14.92-23.24-22.7-.3.97-.97,1.94-.78,2.7,2.36,9.66,4.5,19.4,7.38,28.91,2.51,8.26,5.95,16.24,8.85,24.39,1.22,3.42,2.54,7.02-1.75,10.32-15.46-18.01-30.91-36.01-46.35-54.01-.73.36-1.46.71-2.19,1.07,1.88,9.23,3.37,18.56,5.74,27.67,3.5,13.5,7.7,26.82,11.38,40.28.45,1.66-.46,3.7-1.07,7.79-5.71-9.15-9.84-16.26-14.47-23.03-4.87-7.14-9.8-14.32-15.46-20.82-5.2-5.98-7.62-14.43-15.72-18.25,1.33,13.12,3.27,25.8,6.05,38.3,2.75,12.36,6.69,24.48,5.56,37.62-9.76-9.18-12.29-22.34-19.53-32.78-7.46-10.76-13.7-22.38-20.47-33.62-1.51,5.86-1.45,11.33-.77,16.72,2.02,15.84,4.42,31.64,6.35,47.49.44,3.64-.4,7.44-.65,11.16-13.92-21.86-22.89-45.65-39.22-65.58-.29,12.36.26,24.47,1.3,36.54,1.03,11.9,2.63,23.75,3.77,35.64.12,1.21-1.17,2.55-2.6,5.45-10.77-25.8-18.78-51.04-34.48-75.01-1.62,4.05-2.97,5.96-3.07,7.94-.65,12.63-1.89,25.32-1.31,37.91,1.02,21.94,2.65,43.88,5.09,65.7,1.99,17.81,5.46,35.46,8.41,53.16,1.81,10.82,3.75,21.61,5.87,32.37,2.83,14.34,5.89,28.63,8.85,42.94,4.31,20.84,8.24,41.76,13.12,62.46,1.96,8.32,5.07,16.69,9.33,24.07,8.07,13.95,15,14.74,28.13,5.14,5.3-3.87,7.7-9.22,7.91-15.41.19-5.63.03-11.38-.92-16.91-2.79-16.4-6.18-32.69-9.08-49.07-5.16-29.16-10.18-58.35-15.17-87.55-1.18-6.91-2.01-13.88-3.01-20.82.69-.2,1.37-.41,2.06-.61,1.2,2.16,2.72,4.2,3.54,6.49,4.74,13.15,9.4,26.32,13.91,39.55,8.92,26.14,17.65,52.34,26.61,78.47,5.17,15.07,8.86,30.72,17.56,44.42,6.63,10.45,8.98,11.4,20.33,7.39,1.57-.55,3.07-1.29,4.62-1.88,10.67-4.1,15.92-11.65,14.74-25.38-.71-8.25-2.43-16.48-4.45-24.53-4.21-16.77-8.74-33.47-13.45-50.11-8.88-31.35-15.82-63.28-28.11-93.61-.49-1.2.25-2.89.71-6.94,3.63,4.34,6.25,6.69,7.86,9.59,2.57,4.64,4.41,9.68,6.67,14.5,19.9,42.5,39.71,85.05,59.87,127.43,3.39,7.12,7.86,13.86,12.65,20.15,4.81,6.33,10.43,6.18,16.18.58,3.75-3.64,5.67-7.88,5.47-13.37-.37-10.16-3.08-19.69-6.87-28.95-10.82-26.46-21.79-52.86-32.6-79.33-.6-1.48-.29-3.32-.41-5,4.18,2.11,6.83,4.92,9.07,8.02,2.72,3.77,5.03,7.84,7.64,11.7,9.89,14.62,19.49,29.45,29.85,43.73,7.59,10.47,16.15,20.24,24.37,30.24.81.99,2.33,1.39,4.99,2.9-1.19-4.6-1.55-7.61-2.73-10.25-8.91-20.06-17.71-40.18-27.07-60.04-14.44-30.65-29.34-61.08-43.91-91.67-1.39-2.93-1.87-6.29-2.77-9.45.72-.35,1.44-.71,2.17-1.06,2.18,2.36,4.72,4.48,6.49,7.12,10.78,16.02,21.27,32.23,32.09,48.23,19.96,29.52,40.01,58.97,60.19,88.33,2.61,3.79,5.9,7.26,9.44,10.22,3.77,3.16,11.64,2.49,15.75-1.06,3.76-3.24,3.83-7.53,1.99-11.86-1.69-3.97-3.19-8.09-5.38-11.77-8.15-13.73-16.56-27.31-24.87-40.95-19.55-32.13-39.12-64.24-58.6-96.41-1.6-2.64-2.57-5.65-3.83-8.49.61-.39,1.22-.78,1.83-1.17,3.16,3.32,6.51,6.48,9.45,9.99,17.31,20.67,34.36,41.56,51.82,62.11,15.74,18.53,31.75,36.82,47.94,54.96,3.94,4.42,8.87,8.02,13.68,11.55,1.84,1.35,4.59,1.47,7.2,2.23,1.73-7.56.59-13.66-2.63-19.34-4.77-8.39-9.66-16.7-14.63-24.97-20.7-34.51-41.47-68.99-62.15-103.51-1.03-1.72-1.51-3.76-2.25-5.65.57-.42,1.14-.84,1.71-1.25,2.61,2.31,5.56,4.34,7.78,6.98,5.35,6.37,10.07,13.28,15.58,19.5,15.69,17.68,31.67,35.09,47.49,52.66,13.15,14.6,26.11,29.36,39.39,43.84,5.22,5.69,9.68,5.79,15.73,1.42,5.68-4.11,7.14-10.42,3.66-16.55-1.48-2.6-3.06-5.19-4.94-7.5-11.71-14.48-23.5-28.89-35.3-43.3-18.57-22.67-37.16-45.33-55.75-67.98-8.03-9.78-16.17-19.48-24.1-29.35-2.32-2.88-5.75-5.7-3.05-11.51,3.5,2.72,6.79,4.84,9.55,7.5,17.25,16.65,34.06,33.77,51.63,50.07,23.68,21.96,47.85,43.39,71.96,64.88,5.98,5.33,12.52,10.07,20.47,13.35-.71-9.4-2.81-14.87-9.17-23.5-13.41-18.19-26.92-36.29-40.32-54.48-1.41-1.91-2.37-4.17-3.53-6.26.77-.73,1.54-1.47,2.31-2.2,23.77,16.55,44.62,36.84,67.84,56.69.34-7.85-1.01-13.51-4.77-18.22-8.1-10.15-16.22-20.31-24.91-29.95-19.42-21.51-39.17-42.71-58.84-63.99-2.76-2.99-5.31-5.89-3.44-10.95ZM22.1,777.89c8.18-1.44,14.86-1.82,21-3.84,26.73-8.76,53.35-17.88,79.93-27.09,27.74-9.61,54.76-21.15,79.43-37.01,24.04-15.46,47.06-32.54,70.14-49.43,25.26-18.48,49.91-37.8,75.13-56.32,28.75-21.12,59.1-39.94,90.42-56.84,51.01-27.52,103.6-51.73,159.79-67.06,13-3.55,26.14-6.6,39.26-9.7,8.34-1.97,16.75-3.61,25.13-5.38,10.04-2.12,20-4.86,30.14-6.17,17.77-2.28,35.64-3.72,53.48-5.41,27.54-2.61,55.16-2.55,82.7-.7,20.22,1.36,40.42,3.82,60.47,6.86,18.34,2.78,36.61,6.42,54.65,10.73,19.33,4.62,38.76,9.39,57.45,16.06,22.83,8.15,44.99,18.19,67.32,27.7,32.85,14,64,31.36,94.14,50.32,25.07,15.77,49.48,32.68,73.41,50.14,32.52,23.74,64.34,48.44,96.4,72.81,29.18,22.17,61.85,37.81,95.81,50.87,18.61,7.16,37.56,13.5,56.57,19.56,17.08,5.45,34.44,10.01,51.68,14.96,3.28.94,7.34,2.16,8.61-1.99,2.79-9.09,2.31-18.39-.9-27.4-.39-1.1-1.67-2.17-2.8-2.67-4.23-1.89-8.43-4.28-12.91-5.16-16.3-3.21-32.8-5.44-49.05-8.88-18.47-3.91-37.04-7.8-55.06-13.32-35.6-10.91-65.56-31.89-93.65-55.64-26.43-22.35-52.11-45.61-78.97-67.42-24.79-20.12-50.41-39.27-76.22-58.09-37.26-27.16-77.92-48.5-119.78-67.62-31.85-14.55-64.84-25.96-98.76-34.36-22.9-5.67-46.11-10.31-69.38-14.18-29.91-4.97-60.07-8.04-90.47-8.04-30.34,0-60.49,1.62-90.62,5.98-43.21,6.26-85.9,13.89-127.48,27.88-46.54,15.66-91.42,34.78-134.24,58.71-36.7,20.51-71.04,44.64-104.05,70.54-21.7,17.02-42.06,35.74-63.12,53.59-19.31,16.37-38.06,33.5-58.29,48.63-24.08,18.01-50.82,31.83-79.78,40.29-22.27,6.5-45,11.5-67.64,16.66-11.98,2.73-24.26,4.15-36.31,6.61-9.01,1.84-12.77,5.87-13.47,14.85-.61,7.88-.13,15.85-.13,25.94ZM1467.38,781.2c.13-.85.27-1.7.4-2.55-2.67-.75-5.3-1.87-8.03-2.19-5.95-.7-11.95-.96-17.93-1.47-23.68-2.01-45.44,3.89-65.97,15.51-18.8,10.63-34.37,25.23-49.53,40.18-40.57,39.98-80.14,80.95-122.67,118.98-42.04,37.59-88.21,68.91-137.87,95-55.76,29.3-115.16,48.83-177.23,59.51-34.78,5.98-69.83,10.99-105.31,9.81-25.27-.84-50.41-3.28-75.54-6.52-39.85-5.15-78.17-15.67-115.91-28.93-39.71-13.95-77.31-32.39-113.36-53.92-47.66-28.46-91.44-62.18-131.55-100.51-28.18-26.93-55.32-54.95-83.49-81.87-16.11-15.39-32.66-30.5-50.28-44.1-28.4-21.93-60.78-29.11-96.11-21.17-2.92.66-5.74,1.79-8.61,2.71.14.66.28,1.33.42,1.99,1.8.13,3.61.36,5.41.39,15.72.24,31.03,2.8,46.11,7.31,18.05,5.39,33.38,15.4,46.41,28.43,27.55,27.55,54.67,55.56,81.42,83.89,28.82,30.53,57.81,60.8,89.94,87.98,35,29.59,72.58,55.43,112.64,77.44,54.19,29.78,111.29,52.25,172.11,64.83,25.15,5.2,50.53,8.22,76.04,10.32,10.59.87,21.28.43,31.91.9,7.61.34,15.22,2.01,22.78,1.73,34.57-1.24,68.95-4.16,103.2-9.68,29.7-4.79,58.6-12.49,86.79-22.24,29.81-10.31,58.94-22.61,86.77-37.97,35.3-19.48,70.13-39.65,101.66-64.85,20.27-16.2,39.59-33.61,58.98-50.87,37.66-33.51,70.09-72.07,104.41-108.81,15.95-17.08,32.26-33.77,51.76-46.8,18.29-12.22,38.77-18.77,60.63-20.92,6.53-.64,13.08-1.03,19.62-1.53ZM624.28,829.54c-5.94,4.88-10.93,8.75-15.65,12.93-3.49,3.09-2.95,6.43.45,9.35,1.25,1.08,2.67,1.98,4.08,2.85,7.22,4.41,13.51,9.65,17.14,17.62.93,2.05,2.55,3.99,4.3,5.43,7.69,6.29,15.35,12.64,23.37,18.5,24.79,18.12,52.73,30.1,82.1,37.8,24.42,6.4,49.52,9.1,75.13,4.96,14.13-2.29,28.02-3.96,40.48-11.65,3.96-2.44,9.16-.52,10.94,3.61,2,4.64-1.08,6.91-4.61,8.26-5.25,2.01-10.67,3.61-16.08,5.16-18.33,5.24-37.09,7.92-56.12,7.59-20.68-.36-40.97-3.4-61.16-8.42-40.15-9.98-74.17-30.36-104.38-57.95-12.89-11.77-23.17-25.62-32.48-40.25-6.43-10.1-13.39-19.97-18.68-30.66-16.48-33.32-23.93-68.98-25.72-105.95-.1-2.15-.55-4.29-.84-6.43-.69-.05-1.38-.1-2.08-.15-2.01,11.88-5.49,23.75-5.65,35.65-.19,14.54,1.23,29.35,4.05,43.63,5.52,27.91,15.54,54.23,30.53,78.71,23.04,37.66,54.09,66.45,93.11,86.73,29.47,15.32,60.6,25.57,93.71,29.26,16.54,1.84,33.1,3.81,49.7.44,3.58-.73,7.2-1.47,10.84-1.72,17.01-1.17,33.4-5.33,49.57-10.39,23.1-7.23,44.09-18.76,63.82-32.52,23.71-16.53,44.18-36.57,59.85-60.89,18.03-27.99,29.7-58.72,35.44-91.55,5.2-29.73,3.27-59.02-6.75-87.62-.53-1.5-1.75-2.76-2.65-4.14-1.8,8.79-1.78,17.06-1.8,25.32-.07,22.38-1.54,44.61-8.52,66.08-3.58,11.02-5.73,22.6-12.58,32.41-1.67,2.4-2.44,5.45-3.54,8.23-12.59,31.61-32.05,58.24-58.52,79.55-7.19,5.79-15.65,9.97-23.05,15.52-7.45,5.59-16.8,7.52-23.97,14-3.78,3.42-9.98,5.89-17.68,4.53,2.51-4.05,4.2-7.48,6.55-10.35,1.81-2.2,4.33-3.92,6.79-5.45,2.06-1.28,4.47-2.01,6.75-2.89,1.78-.69,3.71-1.08,5.41-1.91,4.15-2.02,8.28-4.12,12.29-6.41,1.68-.96,3.62-2.2,4.41-3.82,2.21-4.52,5.21-7.28,10.41-8.19,2.31-.41,4.48-2.73,6.3-4.59,9.32-9.52,18.84-18.88,27.62-28.88,4.89-5.57,11.05-10.57,13.09-18.85-5.25-3.23-9.94-7.3-15.38-9.12-5.29-1.76-11.34-1.2-18.3-1.75,1.63-4.05,3-7.46,4.49-11.17,12.78,4.07,23.54,9.45,33.01,18.34,2.49-3.43,4.35-5.71,5.9-8.18,4.11-6.56,3.63-10.65-2.06-15.75-4.23-3.8-8.77-6.84-14.77-7.78-4.42-.7-8.58-3.01-13.91-5,2.09-5.6,3.86-10.34,6.21-16.64,9.46,11.26,21.46,14.55,34.02,18.94v-14.73c-6.39-2.18-12.32-4.24-18.28-6.23-14.53-4.83-15.56-6.34-14.48-21.37.22-2.99.53-6,.39-8.98-.1-2.06-.89-4.08-1.45-6.41-5.52,1.72-7.82,5.05-8.98,9.5-1.58,6.1-2.83,12.33-5.01,18.21-3.45,9.33-7.08,18.65-11.49,27.55-9.03,18.23-23.06,32.65-38.02,45.93-16.28,14.46-34.42,26.38-55.62,32.54-30.54,8.86-61.25,12.09-92.41,2.48-26.84-8.28-51.45-20.1-70.49-41.5-7.53-8.46-14.9-17.06-22.54-25.41-4.81-5.27-10.35-9.04-17.87-6.33.66,19.05,7.74,34.62,21.89,46.62-4.27,6.26-8.49,8.7-14.76,5.72,0-4.29,1.43-9.02-.28-11.83-4.22-6.92-9.88-12.96-15.57-20.13ZM828.49,1317.1c.93,0,1.85,0,2.78,0,.8,2.41,2.06,4.77,2.31,7.24,1.52,14.9,2.73,29.82,4.19,44.72,1.53,15.56,3.11,31.12,4.93,46.64,1.24,10.56,2.8,21.09,4.44,31.6,2.15,13.8,4.09,27.66,6.96,41.32,1.89,9.01,4.53,18.03,8.17,26.47,3.62,8.4,13.03,8.83,18.17,1.15,2.28-3.41,3.75-7.86,4.08-11.95.51-6.26-.04-12.65-.58-18.94-2.47-28.53-5.39-57.02-7.6-85.56-3.5-45.05-5.75-90.18-14.02-134.77-5.37-28.93-12.41-57.29-23.12-85.9-1.09,2.32-2.14,3.69-2.37,5.18-2.3,15.07-5.02,30.12-6.47,45.28-.95,9.89.06,19.97.04,29.96,0,3.1,1.17,6.73-3.8,9.54-1.59-7.04-3.1-13.57-4.54-20.12-3.04-13.9-5.97-27.82-9.09-41.7-1.23-5.47-3.02-10.8-4.24-16.27-.8-3.62-2.05-6.41-6.34-6.18-4.03.21-4.39,3.46-5.02,6.38-.35,1.62-.56,3.28-.76,4.93-1.21,9.9-2.42,19.8-3.61,29.7-3.02,25.19-3.4,50.4-1.78,75.75,2.52,39.22,4.38,78.48,6.29,117.73,1.47,30.25-.95,60.69,4.21,90.75.87,5.1,2.75,10.12,4.84,14.88,1.63,3.71,4.93,4.03,8.37,1.88,4.36-2.73,6.13-7.06,6.57-11.79,1-10.6,2.17-21.24,2.28-31.87.15-14.31-1.27-28.64-.91-42.93.96-37.96,2.48-75.9,3.9-113.84.12-3.11,1.12-6.18,1.72-9.27ZM722.36,723.85c.59-23.39-13.45-54.88-40.85-66.91-28.14-12.36-54.7-10.44-77.95,10.2-21.91,19.44-29.31,44.5-22.88,73.16,9.95,44.35,49.51,65.74,91.99,52.58,33.19-10.28,48.54-34.7,49.69-69.03ZM1195.85,881.74c6.73-8.07,14.15-15.68,20.04-24.32,9.6-14.07,16.64-29.6,21.64-45.88,2.84-9.25,4.5-18.85,6.69-28.3-.79-.26-1.57-.52-2.36-.78-10.78,35.32-25.04,68.97-46.01,99.28ZM608.68,811.36c-3.84,2.96-7.27,5.43-10.49,8.13-4.36,3.65-5.08,7.28-2.51,11.03,2.89,4.21,8.73,5.44,13.12,2.77,7.45-4.55,7.68-11.9-.12-21.93ZM344,831.1c-4.63-15.78-9.25-31.56-13.88-47.33-.3,17.3,2.76,33.56,13.88,47.33ZM991.4,772.02c.5-.63,1.01-1.27,1.51-1.9-1.6-2.68-2.99-5.52-4.86-8-2.68-3.54-8.39-4.96-11.29-2.68-3.82,3-3.23,6.64-.78,10.13,5.36.85,10.39,1.65,15.41,2.45ZM956.24,745.06c2.65-5.74,2.16-11.4.63-17.3-5.39-2.04-8.63-.24-10.03,4.85-1.5,5.46.89,8.66,9.4,12.45ZM584,809.55c7.28.17,8.66-.51,9.23-3.96.74-4.51-1.38-6.7-8.27-8.36-.3,3.87-.6,7.7-.96,12.32ZM986.43,728.59c-3.24,3.84-5.33,7.32-2.23,12.18q5.97-4.25,2.23-12.18ZM915.74,985.22c-5.09.71-6.64,3.55-7.63,8.7,3.9-2.56,7.51-3.55,7.63-8.7ZM867.48,1003.17c1.46-1.92,2.3-3.01,3.13-4.11-.97-.7-1.92-1.89-2.92-1.94-.93-.05-2.82,1.3-2.73,1.72.25,1.24,1.27,2.33,2.52,4.33ZM818.88,686.16q5.41-3.23,0-6.9v6.9ZM951.87,709.52v-10.57q-4.25,4.83,0,10.57ZM716.33,638.85c-1.28-1.37-2.06-2.21-2.85-3.05-.96.92-2.36,1.7-2.74,2.82-.23.7,1.07,1.91,1.68,2.9,1.13-.77,2.26-1.54,3.9-2.67ZM944.4,663.8c-.67.18-1.34.37-2.01.55.13,2.45-1.25,5.45,4.03,7.19-.85-3.25-1.43-5.49-2.02-7.74Z"></path>
  <path d="M223.34,317.86c-4.97-1.27-6.61-4.69-5.03-8.44.93-2.22,4.08-4,6.61-4.81.87-.28,3.64,2.71,4.22,4.6,1.59,5.19-2.75,6.69-5.79,8.64Z"></path>
  <path d="M1110.41,919.53c1.14,1.82,2.27,3.64,3.41,5.46-.55.33-1.09.67-1.64,1-1.11-1.83-2.22-3.67-3.33-5.5.52-.32,1.04-.64,1.56-.95Z"></path>
  <path d="M886.41,885.62c-1.22,6.06-4.12,8.29-7.77,10.12-5.89,2.95-11.55,6.39-17.53,9.13-2.57,1.18-5.71,1.57-8.58,1.55-7.33-.06-14.22.88-21.35,3.29-6.68,2.26-14.3,3.54-21.72-.27,1.05-.49,2.06-1.24,3.16-1.43,10.03-1.71,20.35-2.41,30.06-5.19,11.27-3.23,22.87-6,33.08-12.35,2.91-1.81,6.27-2.89,10.65-4.85Z"></path>
  <path d="M739.89,906.94c-10.39,1.63-18.43-4.58-26.78-8.77-10.3-5.17-19.88-11.78-29.7-17.89-.99-.62-1.5-2.03-3.09-4.31,5.71.78,8.98,3.6,12.18,6.01,12.1,9.08,25.54,15.04,40.16,18.66,3.3.82,7.37,1.47,7.04,6.51l.2-.22Z"></path>
  <path d="M739.69,907.16c7.23-.96,14.25-2.09,20.98,2.85,2.1,1.54,6.28.24,11.03.24-.42,2.78-.78,5.15-1.23,8.07-11.1-4.15-20.83-7.78-30.57-11.4-.01.02-.22.23-.22.23Z"></path>
  <path d="M915.79,865.66c4.08-5.8,7.99-11.35,12.07-17.15,4.31,1.09,5.38,4.1,3.74,7.38-3.6,7.22-2.67,11.01-15.81,9.77Z"></path>
  <path d="M781.31,909.53c7.11-3.29,11.4,1.1,17.18,2.71-1.34,2.36-2.23,3.93-3.41,6.01-4.64-2.92-11.13-1.69-13.76-8.72Z"></path>
  <path d="M905.84,870.36v10.51c-5.28.5-10,.94-15.15,1.43,4.86-3.83,9.52-7.5,15.15-11.93Z"></path>
</svg></svg></g></g><defs><clipPath id="SvgjsClipPath1103"><rect width="1000" height="1000" x="0" y="0" rx="500" ry="500"></rect></clipPath></defs></svg>